<?xml version="1.0" encoding="utf-8"?>
<!-- Generator: Adobe Illustrator 13.0.0, SVG Export Plug-In  -->
<!DOCTYPE svg PUBLIC "-//W3C//DTD SVG 1.1//EN" "http://www.w3.org/Graphics/SVG/1.1/DTD/svg11.dtd" [
	<!ENTITY ns_flows "http://ns.adobe.com/Flows/1.0/">
]>
<svg version="1.1"
	 xmlns="http://www.w3.org/2000/svg" xmlns:xlink="http://www.w3.org/1999/xlink" xmlns:a="http://ns.adobe.com/AdobeSVGViewerExtensions/3.0/"
	 x="0px" y="0px" width="240px" height="64px" viewBox="-50.2 -1.1 240 64" enable-background="new -50.2 -1.1 240 64"
	 xml:space="preserve">
<defs>
</defs>
<path fill="#E4E4E4" d="M122,0.2c1.6,0,2.8,0.7,2.8,1.5l-0.1,58.5c0,0.8-1.3,1.5-2.9,1.5l-119-0.2C1.3,61.6,0,60.9,0,60L0.1,1.5
	C0.1,0.7,1.4,0,3,0L122,0.2z"/>
<linearGradient id="SVGID_1_" gradientUnits="userSpaceOnUse" x1="-185.6675" y1="-13.9746" x2="-157.2661" y2="-13.9746" gradientTransform="matrix(1.0661 1.470000e-002 1.470000e-002 1.137 203.9811 46.1801)">
	<stop  offset="0" style="stop-color:#442F8F"/>
	<stop  offset="0.6593" style="stop-color:#5072B6"/>
	<stop  offset="0.8571" style="stop-color:#282A73"/>
	<a:midPointStop  offset="0" style="stop-color:#442F8F"/>
	<a:midPointStop  offset="0.5" style="stop-color:#442F8F"/>
	<a:midPointStop  offset="0.6593" style="stop-color:#5072B6"/>
	<a:midPointStop  offset="0.5" style="stop-color:#5072B6"/>
	<a:midPointStop  offset="0.8571" style="stop-color:#282A73"/>
</linearGradient>
<polygon fill="url(#SVGID_1_)" points="30.7,37.3 15.6,40.3 5.9,30.8 11.2,18.2 26.3,15.2 36.1,24.8 "/>
<text transform="matrix(1 0 0 1 11.2178 38.1519)" fill="#454043" font-family="'MyriadPro-Bold'" font-size="37.372">v</text>
<text transform="matrix(1 0 0 1 10.9414 37.894)" fill="#FFFFFF" font-family="'MyriadPro-Bold'" font-size="37.372">v</text>
<path fill="#262261" d="M44.9,36.2L40.3,22h3.5l1.7,6c0.5,1.7,0.9,3.3,1.3,5.1h0.1c0.4-1.7,0.8-3.4,1.3-5L50,22h3.4l-4.8,14.2H44.9z
	"/>
<path fill="#262261" d="M57.6,23c0,0.9-0.7,1.6-1.7,1.6c-1,0-1.7-0.7-1.7-1.6c0-0.9,0.7-1.6,1.7-1.6C56.9,21.4,57.5,22.1,57.6,23z
	 M54.2,36.2V25.9h3.2v10.3H54.2z"/>
<path fill="#262261" d="M63.6,23.1v2.8h2.3v2.4h-2.3V32c0,1.2,0.3,1.8,1.3,1.8c0.4,0,0.6,0,1-0.1l0,2.4c-0.4,0.2-1.2,0.3-2.1,0.3
	c-1,0-1.9-0.4-2.4-0.9c-0.6-0.6-0.9-1.6-0.9-3.1v-4.2h-1.4v-2.4h1.4v-1.9L63.6,23.1z"/>
<path fill="#262261" d="M78.3,35.8c-0.6,0.3-1.9,0.6-3.7,0.6c-4.9,0-7.5-3.1-7.5-7.1c0-4.9,3.5-7.6,7.8-7.6c1.7,0,2.9,0.3,3.5,0.6
	l-0.7,2.6c-0.7-0.3-1.6-0.5-2.7-0.5c-2.6,0-4.5,1.5-4.5,4.7c0,2.9,1.7,4.6,4.6,4.6c1,0,2-0.2,2.7-0.5L78.3,35.8z"/>
<path fill="#262261" d="M88.8,33.7c0,1,0,1.9,0.1,2.5H86l-0.2-1h-0.1c-0.7,0.8-1.7,1.3-3,1.3c-2.1,0-3.3-1.5-3.3-3.2
	c0-2.7,2.4-4,6.1-3.9v-0.1c0-0.5-0.3-1.3-1.9-1.3c-1.1,0-2.2,0.4-2.9,0.8l-0.6-2.1c0.7-0.4,2.1-0.9,4-0.9c3.4,0,4.5,2,4.5,4.5V33.7z
	 M85.6,31.3c-1.7,0-3,0.4-3,1.6c0,0.8,0.5,1.2,1.3,1.2c0.8,0,1.5-0.5,1.7-1.2c0-0.2,0.1-0.4,0.1-0.5V31.3z"/>
<path fill="#262261" d="M91.3,29.2c0-1.3,0-2.4-0.1-3.3h2.7l0.1,1.4h0.1c0.4-0.7,1.4-1.6,3.1-1.6c1.3,0,2.4,0.7,2.8,1.8h0
	c0.4-0.5,0.8-1,1.3-1.2c0.6-0.3,1.2-0.5,2-0.5c2,0,3.5,1.4,3.5,4.5v6.1h-3.1v-5.6c0-1.5-0.5-2.4-1.5-2.4c-0.7,0-1.3,0.5-1.5,1.1
	c-0.1,0.2-0.1,0.6-0.1,0.8v6h-3.1v-5.8c0-1.3-0.5-2.2-1.5-2.2c-0.8,0-1.3,0.6-1.5,1.2c-0.1,0.3-0.1,0.5-0.1,0.8v6h-3.1V29.2z"/>
<path fill="#262261" d="M109.5,29.4c0-1.4,0-2.5-0.1-3.5h2.8l0.1,1.4h0c0.8-1.1,1.9-1.7,3.4-1.7c2.3,0,4.3,2,4.3,5.3
	c0,3.8-2.4,5.5-4.7,5.5c-1.2,0-2.2-0.5-2.7-1.2h0v5.1h-3.2V29.4z M112.7,31.8c0,0.3,0,0.5,0.1,0.7c0.2,0.9,1,1.5,1.9,1.5
	c1.4,0,2.2-1.2,2.2-2.9c0-1.6-0.7-2.9-2.2-2.9c-0.9,0-1.7,0.7-1.9,1.6c0,0.2-0.1,0.4-0.1,0.6V31.8z"/>
<text transform="matrix(1 0 0 1 71.3506 44.9644)" fill="#262261" font-family="'MyriadPro-Regular'" font-size="7.447">IT Solutions</text>
</svg>
